<svg width="221" height="66" viewBox="0 0 221 66" fill="none" xmlns="http://www.w3.org/2000/svg">
<path d="M75.1387 62.192V6.0578e-06H93.7786V6.00719H81.6759V35.248H90.775V41.2552H81.6759V56.1848H93.7786V62.192H75.1387ZM97.7416 62.192V6.0578e-06H104.279V56.1848H115.498V62.192H97.7416ZM119.568 62.192V6.0578e-06H126.105V62.192H119.568ZM130.956 62.192V6.0578e-06H149.596V6.00719H137.493V35.248H146.592V41.2552H137.493V62.192H130.956ZM152.696 54.7714V7.42064C152.696 3.97535 155.699 6.0578e-06 160.558 6.0578e-06H163.562C168.42 6.0578e-06 171.336 3.97535 171.336 7.42064V54.7714C171.336 58.2166 168.42 62.192 163.562 62.192H160.558C155.699 62.192 152.696 58.2166 152.696 54.7714ZM160.558 56.1848H163.562C164.092 56.1848 164.798 55.5664 164.798 54.7714V7.42064C164.798 6.53723 164.092 6.00719 163.562 6.00719H160.558C160.028 6.00719 159.233 6.53723 159.233 7.42064V54.7714C159.233 55.5664 160.028 56.1848 160.558 56.1848ZM176.248 54.7714V7.42064C176.248 3.97535 179.251 6.0578e-06 184.11 6.0578e-06H187.114C191.972 6.0578e-06 194.888 3.97535 194.888 7.42064V54.7714C194.888 58.2166 191.972 62.192 187.114 62.192H184.11C179.251 62.192 176.248 58.2166 176.248 54.7714ZM184.11 56.1848H187.114C187.644 56.1848 188.35 55.5664 188.35 54.7714V7.42064C188.35 6.53723 187.644 6.00719 187.114 6.00719H184.11C183.58 6.00719 182.785 6.53723 182.785 7.42064V54.7714C182.785 55.5664 183.58 56.1848 184.11 56.1848ZM204.083 62.192V6.00719H197.988V6.0578e-06H216.628V6.00719H210.532V62.192H204.083Z" fill="white"/>
<path d="M23.3991 62.9113C36.3986 42.112 37.6986 34.3123 27.299 39.5121C14.2995 49.9118 15.5994 44.712 31.1988 23.9127L0 16.113C62.3977 13.5131 77.9971 18.7129 46.7982 31.7124L31.1988 62.9113M15.5994 55.1116L7.79971 62.9113L0 55.1116L7.79971 47.3119M38.9985 8.31332C49.3981 18.7129 51.9981 16.113 46.7982 0.513611L38.9985 8.31332Z" fill="#F5A34F"/>
</svg>